<?xml version="1.0" encoding="UTF-8"?><svg id="Layer_1" xmlns="http://www.w3.org/2000/svg" viewBox="0 0 400 165"><defs><style>.cls-left{fill:#231f20;}</style></defs><path class="cls-left" d="M118.52,52.21l.45.56c-3.71,6.53-7.88,9.68-15.19,9.68-5.63,0-11.93-2.81-14.74-9.9-5.29,6.19-11.82,9.9-19.92,9.9-8.55,0-14.29-4.95-14.29-12.38s4.61-12.94,18.56-18l15.3-5.63v-4.16c0-7.76-2.48-14.74-12.72-14.74-9.23,0-16.32,7.54-16.32,15.75h-.79c0-11.93,10.02-23.29,24.76-23.29,17.1,0,24.87,10.91,24.87,25.88v21.49c0,6.75,2.25,8.44,4.61,8.44,1.69,0,3.6-.79,5.29-3.6h.11ZM88.7,51.65v-24.08l-4.28,2.03c-9.9,4.84-12.6,10.91-12.6,16.54,0,4.61,2.14,9.68,7.76,9.68,3.49,0,6.64-1.91,9.12-4.16Z"/><path class="cls-left" d="M179.84,51.31c0,3.94,1.13,8.55,3.94,9.68v.68h-28.02v-.68c2.81-1.12,3.94-5.29,3.94-9.68v-30.72c0-9.68-3.82-13.16-8.21-13.16-3.38,0-6.3,1.24-8.55,3.49v40.4c0,3.94,1.12,8.55,3.94,9.68v.68h-28.02v-.68c2.81-1.12,3.94-5.29,3.94-9.68v-31.06c0-5.18-1.8-8.1-5.63-11.25v-.56c4.95-1.46,17.55-5.4,24.42-7.43h.67v9.23c4.5-6.19,11.7-10.24,19.92-10.24,14.74,0,17.66,13.17,17.66,24.53v26.78Z"/><path class="cls-left" d="M0,57.63c0-17.22,12.49-31.28,34.32-31.28,6.3,0,13.73,2.14,19.13,6.75l-5.06,13.28h-.56c-.79-1.91-4.61-18.57-14.07-18.57-8.33,0-12.49,10.46-12.38,23.97.11,15.98,6.08,27.34,19.13,27.34,4.16,0,9.9-.79,14.74-6.75l.45.56c-3.38,7.88-10.91,15.87-25.32,15.87-16.65,0-30.38-12.04-30.38-31.17Z"/><path class="cls-left" d="M118.37,114.85c0,3.94,1.13,8.55,3.94,9.68v.68h-22.62l-.68-9.11c-4.39,5.96-11.03,9.9-19.02,9.9-14.07,0-17.67-11.93-17.67-23.97v-18.23c0-5.18-1.91-8.1-5.74-11.25v-.56c4.84-1.35,18.34-5.4,25.32-7.43h.45v41.07c0,9.56,3.83,13.05,8.44,13.05,2.81,0,5.4-1.35,7.54-3.38v-31.51c0-5.18-1.91-8.1-5.74-11.25v-.56c4.84-1.35,18.23-5.4,25.2-7.43h.56v50.3Z"/><path class="cls-left" d="M126.13,125.2v-.68c2.81-1.12,3.94-5.74,3.94-9.68v-31.73c0-5.18-1.8-8.1-5.63-11.14v-.67c4.73-1.35,18.23-5.4,25.2-7.43h.56v50.97c0,3.94,1.13,8.55,3.94,9.68v.68h-28.02Z"/><path class="cls-left" d="M218.85,114.85c0,3.94,1.12,8.55,3.94,9.68v.68h-28.02v-.68c2.81-1.12,3.94-5.29,3.94-9.68v-30.72c0-9.68-3.82-13.16-8.21-13.16-3.38,0-6.3,1.24-8.55,3.49v40.4c0,3.94,1.13,8.55,3.94,9.68v.68h-28.02v-.68c2.81-1.12,3.94-5.29,3.94-9.68v-31.06c0-5.18-1.8-8.1-5.63-11.25v-.56c4.95-1.46,17.55-5.4,24.42-7.43h.67v9.23c4.5-6.19,11.7-10.24,19.92-10.24,14.74,0,17.67,13.17,17.67,24.53v26.78Z"/><path class="cls-left" d="M284.78,115.75l.45.56c-3.71,6.53-7.88,9.68-15.19,9.68-5.63,0-11.93-2.81-14.74-9.9-5.29,6.19-11.82,9.9-19.92,9.9-8.55,0-14.29-4.95-14.29-12.38s4.61-12.94,18.57-18l15.3-5.63v-4.16c0-7.76-2.48-14.74-12.71-14.74-9.23,0-16.32,7.54-16.32,15.75h-.79c0-11.93,10.01-23.29,24.76-23.29,17.1,0,24.87,10.91,24.87,25.88v21.49c0,6.75,2.25,8.44,4.61,8.44,1.69,0,3.6-.79,5.29-3.6h.11ZM254.96,115.18v-24.08l-4.28,2.03c-9.9,4.84-12.6,10.91-12.6,16.54,0,4.61,2.14,9.68,7.76,9.68,3.49,0,6.64-1.91,9.11-4.16Z"/><path class="cls-left" d="M321.01,112.93c-4.5,9.11-10.02,13.05-19.35,13.05-10.69,0-16.65-7.2-16.65-20.25v-38.71h-7.76v-.67c9.56-4.73,18.68-10.13,27.34-15.87h.56v15.19h14.29v1.35h-14.29v39.72c0,8.44,3.38,10.46,7.31,10.46,3.6,0,5.85-2.59,7.99-4.84l.56.56Z"/><path class="cls-left" d="M63.58,140.28h1.99v12.17h7.52v1.73h-9.51v-13.9Z"/><path class="cls-left" d="M83.12,147.82v6.35h-1.81v-1.39c-.64.95-1.81,1.51-3.45,1.51-2.38,0-3.89-1.27-3.89-3.1,0-1.69,1.09-3.08,4.23-3.08h3.02v-.38c0-1.61-.93-2.54-2.82-2.54-1.25,0-2.52.44-3.33,1.13l-.79-1.43c1.09-.87,2.66-1.35,4.35-1.35,2.88,0,4.51,1.39,4.51,4.27ZM81.21,150.96v-1.47h-2.94c-1.89,0-2.42.73-2.42,1.63,0,1.05.87,1.71,2.32,1.71s2.56-.65,3.04-1.87Z"/><path class="cls-left" d="M108.71,148.12v6.05h-1.91v-5.84c0-2.06-.99-3.08-2.72-3.08-1.91,0-3.16,1.21-3.16,3.49v5.42h-1.91v-5.84c0-2.06-.99-3.08-2.72-3.08-1.91,0-3.16,1.21-3.16,3.49v5.42h-1.91v-10.52h1.83v1.57c.75-1.07,2.04-1.67,3.63-1.67s2.96.64,3.65,1.95c.79-1.19,2.26-1.95,4.05-1.95,2.56,0,4.31,1.47,4.31,4.57Z"/><path class="cls-left" d="M111.51,140.4c0-.69.56-1.25,1.29-1.25s1.29.54,1.29,1.21c0,.71-.54,1.27-1.29,1.27s-1.29-.54-1.29-1.23ZM111.85,143.65h1.91v10.52h-1.91v-10.52Z"/><path class="cls-left" d="M117.01,139.45h1.91v14.73h-1.91v-14.73Z"/><path class="cls-left" d="M122.17,139.45h1.91v14.73h-1.91v-14.73Z"/><path class="cls-left" d="M126.36,148.92c0-3.14,2.32-5.36,5.48-5.36s5.46,2.22,5.46,5.36-2.3,5.38-5.46,5.38-5.48-2.24-5.48-5.38ZM135.37,148.92c0-2.24-1.51-3.69-3.53-3.69s-3.55,1.45-3.55,3.69,1.53,3.71,3.55,3.71,3.53-1.47,3.53-3.71Z"/><path class="cls-left" d="M145.22,143.56v1.85c-.16-.02-.3-.02-.44-.02-2.04,0-3.32,1.25-3.32,3.55v5.24h-1.91v-10.52h1.83v1.77c.68-1.23,1.99-1.87,3.83-1.87Z"/><path class="cls-left" d="M151.32,148.92c0-3.14,2.32-5.36,5.56-5.36,1.89,0,3.45.77,4.29,2.24l-1.45.93c-.67-1.03-1.71-1.51-2.86-1.51-2.06,0-3.61,1.45-3.61,3.69s1.55,3.71,3.61,3.71c1.15,0,2.18-.48,2.86-1.51l1.45.91c-.83,1.47-2.4,2.26-4.29,2.26-3.24,0-5.56-2.24-5.56-5.38Z"/><path class="cls-left" d="M173.05,143.65v10.52h-1.81v-1.59c-.77,1.09-2.08,1.71-3.57,1.71-2.72,0-4.53-1.49-4.53-4.59v-6.06h1.91v5.84c0,2.06,1.03,3.1,2.84,3.1,1.99,0,3.26-1.23,3.26-3.49v-5.44h1.91Z"/><path class="cls-left" d="M175.97,140.4c0-.69.56-1.25,1.29-1.25s1.29.54,1.29,1.21c0,.71-.54,1.27-1.29,1.27s-1.29-.54-1.29-1.23ZM176.31,143.65h1.91v10.52h-1.91v-10.52Z"/><path class="cls-left" d="M191.46,148.12v6.05h-1.91v-5.84c0-2.06-1.03-3.08-2.84-3.08-2.02,0-3.33,1.21-3.33,3.49v5.42h-1.91v-10.52h1.83v1.59c.77-1.07,2.12-1.69,3.79-1.69,2.56,0,4.37,1.47,4.37,4.57Z"/><path class="cls-left" d="M202.95,147.82v6.35h-1.81v-1.39c-.64.95-1.81,1.51-3.45,1.51-2.38,0-3.89-1.27-3.89-3.1,0-1.69,1.09-3.08,4.23-3.08h3.02v-.38c0-1.61-.93-2.54-2.82-2.54-1.25,0-2.52.44-3.33,1.13l-.79-1.43c1.09-.87,2.66-1.35,4.35-1.35,2.88,0,4.51,1.39,4.51,4.27ZM201.05,150.96v-1.47h-2.94c-1.89,0-2.42.73-2.42,1.63,0,1.05.87,1.71,2.32,1.71s2.56-.65,3.04-1.87Z"/><path class="cls-left" d="M219.41,147.82v6.35h-1.81v-1.39c-.64.95-1.81,1.51-3.45,1.51-2.38,0-3.89-1.27-3.89-3.1,0-1.69,1.09-3.08,4.23-3.08h3.02v-.38c0-1.61-.93-2.54-2.82-2.54-1.25,0-2.52.44-3.33,1.13l-.79-1.43c1.09-.87,2.66-1.35,4.35-1.35,2.88,0,4.51,1.39,4.51,4.27ZM217.51,150.96v-1.47h-2.94c-1.89,0-2.42.73-2.42,1.63,0,1.05.87,1.71,2.32,1.71s2.56-.65,3.04-1.87Z"/><path class="cls-left" d="M226.56,148.92c0-3.14,2.32-5.36,5.56-5.36,1.89,0,3.45.77,4.29,2.24l-1.45.93c-.67-1.03-1.71-1.51-2.86-1.51-2.06,0-3.61,1.45-3.61,3.69s1.55,3.71,3.61,3.71c1.15,0,2.18-.48,2.86-1.51l1.45.91c-.83,1.47-2.4,2.26-4.29,2.26-3.24,0-5.56-2.24-5.56-5.38Z"/><path class="cls-left" d="M246.83,147.82v6.35h-1.81v-1.39c-.64.95-1.81,1.51-3.45,1.51-2.38,0-3.89-1.27-3.89-3.1,0-1.69,1.09-3.08,4.23-3.08h3.02v-.38c0-1.61-.93-2.54-2.82-2.54-1.25,0-2.52.44-3.33,1.13l-.79-1.43c1.09-.87,2.66-1.35,4.35-1.35,2.88,0,4.51,1.39,4.51,4.27ZM244.93,150.96v-1.47h-2.94c-1.89,0-2.42.73-2.42,1.63,0,1.05.87,1.71,2.32,1.71s2.56-.65,3.04-1.87Z"/><path class="cls-left" d="M248.66,153.06l.79-1.51c.89.64,2.32,1.09,3.69,1.09,1.77,0,2.5-.54,2.5-1.43,0-2.36-6.65-.32-6.65-4.51,0-1.89,1.69-3.16,4.39-3.16,1.37,0,2.92.36,3.83.95l-.81,1.51c-.95-.62-2-.83-3.04-.83-1.67,0-2.48.62-2.48,1.45,0,2.48,6.67.46,6.67,4.55,0,1.91-1.75,3.12-4.55,3.12-1.75,0-3.47-.54-4.35-1.23Z"/><path class="cls-left" d="M267.9,147.82v6.35h-1.81v-1.39c-.64.95-1.81,1.51-3.45,1.51-2.38,0-3.89-1.27-3.89-3.1,0-1.69,1.09-3.08,4.23-3.08h3.02v-.38c0-1.61-.93-2.54-2.82-2.54-1.25,0-2.52.44-3.33,1.13l-.79-1.43c1.09-.87,2.66-1.35,4.35-1.35,2.88,0,4.51,1.39,4.51,4.27ZM265.99,150.96v-1.47h-2.94c-1.89,0-2.42.73-2.42,1.63,0,1.05.87,1.71,2.32,1.71s2.56-.65,3.04-1.87Z"/><path class="cls-left" d="M281.93,153.56c-.58.5-1.45.73-2.3.73-2.12,0-3.33-1.17-3.33-3.3v-5.78h-1.79v-1.57h1.79v-2.3h1.91v2.3h3.02v1.57h-3.02v5.7c0,1.13.6,1.77,1.65,1.77.56,0,1.09-.18,1.49-.5l.6,1.37Z"/><path class="cls-left" d="M292.97,149.55h-8.54c.24,1.85,1.73,3.08,3.81,3.08,1.23,0,2.26-.42,3.04-1.27l1.05,1.23c-.95,1.11-2.4,1.71-4.15,1.71-3.39,0-5.66-2.24-5.66-5.38s2.24-5.36,5.28-5.36,5.2,2.18,5.2,5.42c0,.16-.02.4-.04.58ZM284.43,148.18h6.75c-.2-1.77-1.53-3.02-3.37-3.02s-3.18,1.23-3.38,3.02Z"/><path class="cls-left" d="M304.39,143.65l-4.61,10.52h-1.95l-4.61-10.52h1.99l3.61,8.44,3.69-8.44h1.87Z"/><path class="cls-left" d="M313.8,147.82v6.35h-1.81v-1.39c-.64.95-1.81,1.51-3.45,1.51-2.38,0-3.89-1.27-3.89-3.1,0-1.69,1.09-3.08,4.23-3.08h3.02v-.38c0-1.61-.93-2.54-2.82-2.54-1.25,0-2.52.44-3.33,1.13l-.79-1.43c1.09-.87,2.66-1.35,4.35-1.35,2.88,0,4.51,1.39,4.51,4.27ZM311.89,150.96v-1.47h-2.94c-1.89,0-2.42.73-2.42,1.63,0,1.05.87,1.71,2.32,1.71s2.56-.65,3.04-1.87Z"/></svg>