<?xml version="1.0" encoding="UTF-8" standalone="no"?>
<!DOCTYPE svg PUBLIC "-//W3C//DTD SVG 1.1//EN" "http://www.w3.org/Graphics/SVG/1.1/DTD/svg11.dtd">
<svg width="100%" height="100%" viewBox="0 0 1466 316" version="1.1" xmlns="http://www.w3.org/2000/svg" xmlns:xlink="http://www.w3.org/1999/xlink" xml:space="preserve" xmlns:serif="http://www.serif.com/" style="fill-rule:evenodd;clip-rule:evenodd;stroke-linejoin:round;stroke-miterlimit:2;">
    <g transform="matrix(1,0,0,1,-3082.822733,-2401.473955)">
        <g transform="matrix(1,0,0,1,2652.658048,2006.073701)">
            <g transform="matrix(4.834769,0,0,4.834769,-12679.854198,-9085.162514)">
                <path d="M2820.648,2003.305L2820.648,2016.672L2812.623,2016.672L2812.623,1979.297L2818.973,1979.297L2818.973,1986.168C2819.207,1985.449 2819.49,1984.777 2819.823,1984.153C2820.823,1982.274 2822.173,1980.858 2823.873,1979.903C2825.573,1978.949 2827.498,1978.472 2829.648,1978.472C2831.556,1978.472 2833.283,1978.82 2834.829,1979.516C2836.375,1980.212 2837.702,1981.187 2838.81,1982.441C2839.918,1983.695 2840.766,1985.168 2841.354,1986.86C2841.941,1988.551 2842.235,1990.393 2842.235,1992.385L2842.235,1993.51C2842.235,1995.501 2841.956,1997.349 2841.398,1999.053C2840.839,2000.758 2840.016,2002.249 2838.929,2003.528C2837.841,2004.808 2836.518,2005.801 2834.96,2006.51C2833.402,2007.218 2831.635,2007.572 2829.66,2007.572C2827.585,2007.572 2825.718,2007.149 2824.06,2006.303C2822.7,2005.61 2821.562,2004.61 2820.648,2003.305ZM2827.41,2000.897C2828.76,2000.897 2829.945,2000.56 2830.966,1999.885C2831.987,1999.21 2832.783,1998.27 2833.354,1997.066C2833.925,1995.862 2834.21,1994.489 2834.21,1992.947C2834.21,1991.372 2833.925,1990.003 2833.354,1988.841C2832.783,1987.678 2831.993,1986.772 2830.985,1986.122C2829.977,1985.472 2828.785,1985.147 2827.41,1985.147C2826.185,1985.147 2825.045,1985.424 2823.991,1985.978C2822.937,1986.533 2822.083,1987.341 2821.429,1988.403C2820.775,1989.466 2820.448,1990.747 2820.448,1992.247L2820.448,1994.097C2820.448,1995.531 2820.789,1996.753 2821.473,1997.766C2822.156,1998.778 2823.031,1999.553 2824.098,2000.091C2825.164,2000.628 2826.268,2000.897 2827.41,2000.897Z" style="fill:white;"/>
                <path d="M2854.123,1988.563C2854.409,1985.87 2855.188,1983.709 2856.46,1982.078C2858.102,1979.974 2860.489,1978.922 2863.623,1978.922L2864.673,1978.922L2864.673,1985.847L2862.673,1985.847C2860.481,1985.847 2858.787,1986.437 2857.591,1987.616C2856.395,1988.795 2855.798,1990.493 2855.798,1992.71L2855.798,2006.672L2847.773,2006.672L2847.773,1979.297L2854.123,1979.297L2854.123,1988.563Z" style="fill:white;"/>
                <path d="M2882.06,2007.647C2879.652,2007.647 2877.514,2007.272 2875.648,2006.522C2873.781,2005.772 2872.202,2004.745 2870.91,2003.441C2869.618,2002.137 2868.639,2000.643 2867.973,1998.96C2867.306,1997.276 2866.973,1995.497 2866.973,1993.622L2866.973,1992.497C2866.973,1990.572 2867.32,1988.753 2868.016,1987.041C2868.712,1985.328 2869.714,1983.82 2871.023,1982.516C2872.331,1981.212 2873.918,1980.187 2875.785,1979.441C2877.652,1978.695 2879.743,1978.322 2882.06,1978.322C2884.402,1978.322 2886.5,1978.695 2888.354,1979.441C2890.208,1980.187 2891.789,1981.212 2893.098,1982.516C2894.406,1983.82 2895.408,1985.328 2896.104,1987.041C2896.8,1988.753 2897.148,1990.572 2897.148,1992.497L2897.148,1993.622C2897.148,1995.497 2896.814,1997.276 2896.148,1998.96C2895.481,2000.643 2894.502,2002.137 2893.21,2003.441C2891.918,2004.745 2890.339,2005.772 2888.473,2006.522C2886.606,2007.272 2884.468,2007.647 2882.06,2007.647ZM2882.06,2000.872C2883.61,2000.872 2884.906,2000.537 2885.948,1999.866C2886.989,1999.195 2887.779,1998.266 2888.316,1997.078C2888.854,1995.891 2889.123,1994.551 2889.123,1993.06C2889.123,1991.51 2888.845,1990.141 2888.291,1988.953C2887.737,1987.766 2886.933,1986.826 2885.879,1986.135C2884.825,1985.443 2883.552,1985.097 2882.06,1985.097C2880.577,1985.097 2879.306,1985.443 2878.248,1986.135C2877.189,1986.826 2876.383,1987.766 2875.829,1988.953C2875.275,1990.141 2874.998,1991.51 2874.998,1993.06C2874.998,1994.551 2875.266,1995.891 2875.804,1997.078C2876.341,1998.266 2877.137,1999.195 2878.191,1999.866C2879.245,2000.537 2880.535,2000.872 2882.06,2000.872Z" style="fill:white;fill-rule:nonzero;"/>
                <path d="M2910.161,2000.547L2922.598,2000.547L2922.598,2006.672L2900.598,2006.672L2900.598,2001.097L2913.1,1986.06L2912.6,1985.422L2900.623,1985.422L2900.623,1979.297L2922.173,1979.297L2922.173,1984.872L2909.662,1999.919L2910.161,2000.547Z" style="fill:white;"/>
                <path d="M2933.067,1995.085C2933.185,1995.88 2933.377,1996.614 2933.641,1997.285C2934.12,1998.501 2934.86,1999.445 2935.86,2000.116C2936.86,2000.787 2938.148,2001.122 2939.723,2001.122C2941.198,2001.122 2942.406,2000.843 2943.348,2000.285C2944.289,1999.726 2944.918,1999.018 2945.235,1998.16L2952.585,1998.16C2952.193,2000.018 2951.416,2001.664 2950.254,2003.097C2949.091,2004.531 2947.62,2005.647 2945.841,2006.447C2944.062,2007.247 2942.023,2007.647 2939.723,2007.647C2937.389,2007.647 2935.335,2007.247 2933.56,2006.447C2931.785,2005.647 2930.302,2004.57 2929.11,2003.216C2927.918,2001.862 2927.014,2000.343 2926.398,1998.66C2925.781,1996.976 2925.473,1995.247 2925.473,1993.472L2925.473,1992.497C2925.473,1990.664 2925.781,1988.899 2926.398,1987.203C2927.014,1985.508 2927.912,1983.995 2929.091,1982.666C2930.27,1981.337 2931.729,1980.281 2933.466,1979.497C2935.204,1978.714 2937.189,1978.322 2939.423,1978.322C2942.373,1978.322 2944.858,1978.978 2946.879,1980.291C2948.9,1981.603 2950.437,1983.324 2951.491,1985.453C2952.545,1987.583 2953.073,1989.889 2953.073,1992.372L2953.073,1995.085L2933.067,1995.085ZM2933.124,1990.51L2945.473,1990.51C2945.358,1989.747 2945.177,1989.056 2944.929,1988.435C2944.466,1987.276 2943.779,1986.389 2942.866,1985.772C2941.954,1985.156 2940.806,1984.847 2939.423,1984.847C2938.048,1984.847 2936.873,1985.162 2935.898,1985.791C2934.923,1986.42 2934.183,1987.341 2933.679,1988.553C2933.435,1989.141 2933.25,1989.793 2933.124,1990.51Z" style="fill:white;"/>
                <path d="M2968.773,2007.547C2964.898,2007.547 2961.858,2006.741 2959.654,2005.128C2957.45,2003.516 2956.277,2001.26 2956.135,1998.36L2963.26,1998.36C2963.377,1999.243 2963.895,2000.024 2964.816,2000.703C2965.737,2001.383 2967.106,2001.722 2968.923,2001.722C2970.331,2001.722 2971.495,2001.485 2972.416,2001.01C2973.337,2000.535 2973.798,1999.843 2973.798,1998.935C2973.798,1998.135 2973.443,1997.489 2972.735,1996.997C2972.027,1996.506 2970.777,1996.172 2968.985,1995.997L2966.835,1995.772C2963.552,1995.431 2961.085,1994.516 2959.435,1993.028C2957.785,1991.541 2956.96,1989.626 2956.96,1987.285C2956.96,1985.335 2957.443,1983.714 2958.41,1982.422C2959.377,1981.131 2960.714,1980.153 2962.423,1979.491C2964.131,1978.828 2966.085,1978.497 2968.285,1978.497C2971.81,1978.497 2974.656,1979.27 2976.823,1980.816C2978.989,1982.362 2980.131,1984.601 2980.248,1987.535L2973.123,1987.535C2973.014,1986.643 2972.554,1985.885 2971.741,1985.26C2970.929,1984.635 2969.752,1984.322 2968.21,1984.322C2966.968,1984.322 2965.983,1984.556 2965.254,1985.022C2964.525,1985.489 2964.16,1986.118 2964.16,1986.91C2964.16,1987.685 2964.477,1988.272 2965.11,1988.672C2965.743,1989.072 2966.768,1989.356 2968.185,1989.522L2970.335,1989.747C2973.702,1990.097 2976.32,1991.026 2978.191,1992.535C2980.062,1994.043 2980.998,1996.051 2980.998,1998.56C2980.998,2000.401 2980.498,2001.995 2979.498,2003.341C2978.498,2004.687 2977.083,2005.724 2975.254,2006.453C2973.425,2007.183 2971.264,2007.547 2968.773,2007.547Z" style="fill:white;fill-rule:nonzero;"/>
                <path d="M2999.56,2007.647C2997.152,2007.647 2995.014,2007.272 2993.148,2006.522C2991.281,2005.772 2989.702,2004.745 2988.41,2003.441C2987.118,2002.137 2986.139,2000.643 2985.473,1998.96C2984.806,1997.276 2984.473,1995.497 2984.473,1993.622L2984.473,1992.497C2984.473,1990.572 2984.82,1988.753 2985.516,1987.041C2986.212,1985.328 2987.214,1983.82 2988.523,1982.516C2989.831,1981.212 2991.418,1980.187 2993.285,1979.441C2995.152,1978.695 2997.243,1978.322 2999.56,1978.322C3001.902,1978.322 3004,1978.695 3005.854,1979.441C3007.708,1980.187 3009.289,1981.212 3010.598,1982.516C3011.906,1983.82 3012.908,1985.328 3013.604,1987.041C3014.3,1988.753 3014.648,1990.572 3014.648,1992.497L3014.648,1993.622C3014.648,1995.497 3014.314,1997.276 3013.648,1998.96C3012.981,2000.643 3012.002,2002.137 3010.71,2003.441C3009.418,2004.745 3007.839,2005.772 3005.973,2006.522C3004.106,2007.272 3001.968,2007.647 2999.56,2007.647ZM2999.56,2000.872C3001.11,2000.872 3002.406,2000.537 3003.448,1999.866C3004.489,1999.195 3005.279,1998.266 3005.816,1997.078C3006.354,1995.891 3006.623,1994.551 3006.623,1993.06C3006.623,1991.51 3006.345,1990.141 3005.791,1988.953C3005.237,1987.766 3004.433,1986.826 3003.379,1986.135C3002.325,1985.443 3001.052,1985.097 2999.56,1985.097C2998.077,1985.097 2996.806,1985.443 2995.748,1986.135C2994.689,1986.826 2993.883,1987.766 2993.329,1988.953C2992.775,1990.141 2992.498,1991.51 2992.498,1993.06C2992.498,1994.551 2992.766,1995.891 2993.304,1997.078C2993.841,1998.266 2994.637,1999.195 2995.691,1999.866C2996.745,2000.537 2998.035,2000.872 2999.56,2000.872Z" style="fill:white;fill-rule:nonzero;"/>
            </g>
            <g transform="matrix(0.679222,0,0,0.679222,130.64304,179.070907)">
                <g transform="matrix(0.443112,0,0,0.443112,441.006611,318.497254)">
                    <path d="M957.82,221.379L548.231,631.574C546.981,632.66 545.398,633.287 543.743,633.352C542.089,633.417 540.461,632.917 539.129,631.932C537.798,630.948 536.841,629.539 536.417,627.937C535.994,626.336 536.128,624.638 536.799,623.123L649.008,368.163C658.577,346.354 662.564,322.504 660.609,298.768C658.653,275.031 650.817,252.156 637.809,232.209C624.801,212.261 607.029,195.871 586.101,184.517C565.173,173.164 541.747,167.206 517.939,167.181L83.447,167.181C19.733,167.181 -27.379,95.647 17.913,28.774C23.981,19.818 32.169,12.504 41.749,7.483C51.329,2.463 62.002,-0.108 72.816,0L862.431,0C973.475,0 1034.86,140.374 957.82,221.379Z" style="fill:white;fill-rule:nonzero;"/>
                </g>
                <g transform="matrix(0.443112,0,0,0.443112,441.006611,318.497254)">
                    <path d="M34.442,828.694L444.177,418.499C445.425,417.435 446.995,416.824 448.633,416.763C450.271,416.703 451.882,417.197 453.204,418.166C454.527,419.135 455.484,420.522 455.92,422.103C456.357,423.684 456.247,425.366 455.609,426.877L343.473,681.837C333.884,703.644 329.882,727.499 331.829,751.244C333.775,774.988 341.609,797.872 354.621,817.824C367.634,837.777 385.413,854.17 406.352,865.518C427.291,876.866 450.727,882.813 474.541,882.819L977.772,882.819C1041.56,882.819 1088.6,954.353 1043.31,1021.23C1037.19,1030.04 1029.01,1037.22 1019.48,1042.14C1009.94,1047.06 999.347,1049.55 988.622,1049.42L129.758,1049.42C18.714,1050 -42.67,909.626 34.442,828.694Z" style="fill:white;fill-rule:nonzero;"/>
                </g>
            </g>
        </g>
    </g>
</svg>
