<svg xmlns="http://www.w3.org/2000/svg" viewBox="0 0 638.7 109.34"><g id="Capa_2" data-name="Capa 2"><g id="Capa_1-2" data-name="Capa 1"><path d="M0,107.8V0H56.52A37.84,37.84,0,0,1,75.07,4.54,34.75,34.75,0,0,1,88.17,17,33.43,33.43,0,0,1,93,34.8a35.26,35.26,0,0,1-5,18.71A37.07,37.07,0,0,1,74.3,66.68a38.77,38.77,0,0,1-19.48,4.93H24V107.8ZM23.72,50.05H51.28a18.09,18.09,0,0,0,8.39-1.93,15.21,15.21,0,0,0,6-5.39,13.77,13.77,0,0,0,2.23-7.62A11.65,11.65,0,0,0,65.68,28a14.94,14.94,0,0,0-6-4.7,20.38,20.38,0,0,0-8.39-1.69H23.72Z"/><path d="M168,27.72l-6.16,24.64a23.28,23.28,0,0,0-6.93-2.77,34.82,34.82,0,0,0-8.47-1.08,23.44,23.44,0,0,0-9,1.69,21.3,21.3,0,0,0-6.93,4.55,19.33,19.33,0,0,0-5.78,13.93V107.8H102V26.33h21.71l.4,14.7c.61-.91,1.28-1.81,2-2.68a39.49,39.49,0,0,1,12.09-10,30.31,30.31,0,0,1,14.48-3.7,41.57,41.57,0,0,1,8.54.85A28.33,28.33,0,0,1,168,27.72Z"/><path d="M215,109.34A60.19,60.19,0,0,1,189,104a43.25,43.25,0,0,1-17.87-15A38.42,38.42,0,0,1,164.62,67a38.31,38.31,0,0,1,6.46-22A43.46,43.46,0,0,1,189,30a60.19,60.19,0,0,1,26-5.39q14.94,0,26.18,5.39A43.56,43.56,0,0,1,258.86,45a38.24,38.24,0,0,1,6.47,22,38.35,38.35,0,0,1-6.47,21.94,43.35,43.35,0,0,1-17.71,15Q229.92,109.34,215,109.34Zm.16-19.71a33.1,33.1,0,0,0,13.93-2.85,23.82,23.82,0,0,0,9.86-8A19.22,19.22,0,0,0,242.39,67a19.17,19.17,0,0,0-3.47-11.86,24.7,24.7,0,0,0-9.86-8,32.38,32.38,0,0,0-13.93-2.92,32.94,32.94,0,0,0-14,2.92,24.59,24.59,0,0,0-9.93,8A19.1,19.1,0,0,0,187.72,67a19.15,19.15,0,0,0,3.46,11.78,23.72,23.72,0,0,0,9.93,8A33.69,33.69,0,0,0,215.13,89.63Z"/><rect x="271.15" y="26.33" width="77.69" height="17.87"/><polyline points="348.84 62.07 271.15 89.63 271.15 71.76 348.84 44.2"/><rect x="271.15" y="89.63" width="77.69" height="17.87"/><path d="M445.67,48.9A36.84,36.84,0,0,0,436.13,36a45.07,45.07,0,0,0-14.56-8.47,52.23,52.23,0,0,0-17.86-3,56.92,56.92,0,0,0-18.87,3.08,47.86,47.86,0,0,0-15.47,8.7,39.27,39.27,0,0,0-10.32,13.55,41.29,41.29,0,0,0-3.7,17.63A38.19,38.19,0,0,0,361.67,89,42.13,42.13,0,0,0,379.53,104q11.55,5.4,26.8,5.39a69.86,69.86,0,0,0,14.24-1.46,75.25,75.25,0,0,0,13.32-4.08,55.3,55.3,0,0,0,11.4-6.32L435.13,82.24a44,44,0,0,1-10.4,5.31,44.41,44.41,0,0,1-15.17,2.23,45.64,45.64,0,0,1-17.4-3.08,25.68,25.68,0,0,1-11.47-8.47,20.11,20.11,0,0,1-2.86-5.54h70.69l.16-7.39A36.84,36.84,0,0,0,445.67,48.9Zm-67.91,9.47a18.62,18.62,0,0,1,2.46-5.16,20.28,20.28,0,0,1,9.63-7.39A38.86,38.86,0,0,1,404,43.43a32.06,32.06,0,0,1,11.09,1.85,23.9,23.9,0,0,1,8.47,5.08,11.42,11.42,0,0,1,3.69,7.7v.31Z"/><path d="M495,109.34a76.61,76.61,0,0,1-24.87-3.77,42.59,42.59,0,0,1-17.94-11.32l14.17-12.32a37,37,0,0,0,12.86,7.7A48.5,48.5,0,0,0,496,92.4a41.38,41.38,0,0,0,5.62-.39,20.39,20.39,0,0,0,5.08-1.3,9.52,9.52,0,0,0,3.54-2.39,5,5,0,0,0,1.31-3.47c0-2.25-1.54-4-4.62-5.23-1.85-.62-4.23-1.26-7.16-1.93s-6.13-1.31-9.62-1.92A145,145,0,0,1,474.24,72,35.8,35.8,0,0,1,463,66.53a24.37,24.37,0,0,1-6-7.32,20.29,20.29,0,0,1-2.16-9.62,18.39,18.39,0,0,1,3.08-10.47,27.14,27.14,0,0,1,8.39-7.94,40.36,40.36,0,0,1,12.25-4.92,64.75,64.75,0,0,1,14.78-1.62A83.07,83.07,0,0,1,508.12,26,63.25,63.25,0,0,1,522,30.11a43.12,43.12,0,0,1,11.4,7L521.83,51a55.28,55.28,0,0,0-8.47-4.85A59.25,59.25,0,0,0,503.2,42.5a42.8,42.8,0,0,0-10.63-1.38,43.68,43.68,0,0,0-5.85.38,23.55,23.55,0,0,0-5,1.23A9.29,9.29,0,0,0,478.17,45a4.56,4.56,0,0,0-1.31,3.23,6.6,6.6,0,0,0,.93,2.7,6.2,6.2,0,0,0,2.46,2.23,24,24,0,0,0,7.08,2.77c3.19.82,6.93,1.65,11.25,2.47a110.46,110.46,0,0,1,17,4.15,39.35,39.35,0,0,1,11.48,5.86,17.73,17.73,0,0,1,5.23,6.31,18.68,18.68,0,0,1,1.7,8.16,21,21,0,0,1-5,13.86A32.29,32.29,0,0,1,515.13,106,57.25,57.25,0,0,1,495,109.34Z"/><path d="M588.35,109.34a60.23,60.23,0,0,1-26-5.39,43.16,43.16,0,0,1-17.86-15A38.35,38.35,0,0,1,538,67a38.24,38.24,0,0,1,6.47-22A43.36,43.36,0,0,1,562.32,30a60.23,60.23,0,0,1,26-5.39q14.92,0,26.18,5.39A43.69,43.69,0,0,1,632.24,45a38.31,38.31,0,0,1,6.46,22,38.42,38.42,0,0,1-6.46,21.94,43.48,43.48,0,0,1-17.71,15Q603.28,109.34,588.35,109.34ZM590,89.63A33.18,33.18,0,0,0,604,86.78a23.85,23.85,0,0,0,9.85-8A19.22,19.22,0,0,0,617.29,67a19.17,19.17,0,0,0-3.47-11.86,24.74,24.74,0,0,0-9.85-8A32.45,32.45,0,0,0,590,44.2a32.94,32.94,0,0,0-14,2.92,24.59,24.59,0,0,0-9.93,8A19.1,19.1,0,0,0,562.62,67a19.15,19.15,0,0,0,3.46,11.78,23.72,23.72,0,0,0,9.93,8A33.69,33.69,0,0,0,590,89.63Z"/></g></g></svg>