<?xml version="1.0" encoding="UTF-8" standalone="no"?>
<!DOCTYPE svg PUBLIC "-//W3C//DTD SVG 1.1//EN" "http://www.w3.org/Graphics/SVG/1.1/DTD/svg11.dtd">
<svg width="100%" height="100%" viewBox="0 0 2088 428" version="1.1" xmlns="http://www.w3.org/2000/svg" xmlns:xlink="http://www.w3.org/1999/xlink" xml:space="preserve" xmlns:serif="http://www.serif.com/" style="fill-rule:evenodd;clip-rule:evenodd;stroke-linejoin:round;stroke-miterlimit:2;">
    <g transform="matrix(1,0,0,1,-1524.610853,-653.499733)">
        <g transform="matrix(1,0,0,1,0,176.491177)">
            <g transform="matrix(1.87383,0,0,1.87383,-4142.201293,-4808.077184)">
                <path d="M3654.205,2900.324C3655.248,2901.78 3656.231,2903.293 3657.153,2904.865C3662.275,2913.591 3664.837,2923.436 3664.837,2934.4C3664.837,2945.219 3662.275,2955.013 3657.153,2963.782C3652.032,2972.549 3645.045,2979.5 3636.19,2984.637C3627.335,2989.773 3617.236,2992.341 3605.892,2992.341C3594.55,2992.341 3584.452,2989.773 3575.597,2984.637C3566.742,2979.5 3559.754,2972.538 3554.631,2963.748C3549.511,2954.957 3546.951,2945.158 3546.951,2934.352L3546.951,2911.609C3546.951,2908.137 3545.945,2905.388 3543.933,2903.363C3541.921,2901.337 3539.237,2900.324 3535.883,2900.324L3513.658,2900.324C3510.304,2900.324 3507.62,2901.337 3505.608,2903.363C3503.596,2905.388 3502.59,2908.137 3502.59,2911.609L3502.59,2971.177L3502.585,2971.177C3502.585,2982.548 3493.367,2991.767 3481.995,2991.767L3396.458,2991.767L3396.458,2970.974C3396.749,2970.981 3397.041,2970.985 3397.336,2970.985C3403.731,2970.985 3409.352,2969.408 3414.199,2966.254C3419.045,2963.101 3422.843,2958.768 3425.592,2953.257C3428.341,2947.743 3429.716,2941.442 3429.716,2934.352C3429.716,2927.148 3428.333,2920.79 3425.568,2915.278C3422.806,2909.765 3418.987,2905.453 3414.111,2902.342C3409.237,2899.231 3403.602,2897.676 3397.207,2897.676C3390.956,2897.676 3385.378,2899.224 3380.472,2902.322C3375.569,2905.416 3371.75,2909.713 3369.014,2915.21C3366.281,2920.708 3364.915,2927.06 3364.915,2934.264C3364.915,2936.427 3364.566,2972.982 3364.566,2972.982L3364.566,3037.437L3339.696,3037.437L3339.696,2935.743C3339.696,2923.386 3342.134,2912.788 3347.011,2903.949C3351.887,2895.108 3358.657,2888.3 3367.322,2883.526C3375.99,2878.751 3385.966,2876.364 3397.251,2876.364C3406.133,2876.364 3414.118,2877.789 3421.208,2880.64C3428.297,2883.491 3434.337,2887.571 3439.329,2892.881C3444.32,2898.189 3448.169,2904.496 3450.875,2911.803C3453.581,2919.109 3454.934,2927.204 3454.934,2936.089C3454.934,2947.229 3452.647,2957.024 3448.074,2965.474C3446.989,2967.48 3445.806,2969.381 3444.525,2971.177L3471.479,2971.177C3474.927,2971.177 3477.721,2968.382 3477.721,2964.935L3477.721,2910.48C3477.721,2900.642 3480.506,2892.938 3486.076,2887.367C3491.647,2881.797 3499.351,2879.012 3509.189,2879.012L3540.707,2879.012C3550.546,2879.012 3558.25,2881.797 3563.82,2887.367C3564.808,2888.355 3565.708,2889.41 3566.52,2890.532C3569.29,2888.126 3572.315,2885.972 3575.597,2884.068C3584.452,2878.932 3594.55,2876.364 3605.892,2876.364C3606.58,2876.364 3607.264,2876.373 3607.944,2876.392L3607.927,2876.364L3743.052,2876.364C3748.028,2876.364 3752.478,2877.594 3756.403,2880.053C3760.327,2882.51 3763.472,2885.785 3765.839,2889.876C3768.205,2893.967 3769.389,2898.502 3769.389,2903.481C3769.389,2908.335 3768.174,2912.756 3765.746,2916.742C3763.32,2920.726 3759.985,2924.122 3755.741,2926.93L3708.318,2958.442C3707.016,2959.224 3706.141,2960.049 3705.693,2960.917C3705.246,2961.785 3705.022,2962.653 3705.022,2963.521C3705.022,2964.794 3705.513,2965.922 3706.497,2966.905C3707.48,2967.889 3708.753,2968.38 3710.315,2968.38L3749.502,2968.38C3752.857,2968.38 3755.54,2967.368 3757.552,2965.342C3759.564,2963.317 3760.57,2960.568 3760.57,2957.095L3760.569,2957.076C3760.569,2956.421 3760.582,2955.776 3760.606,2955.14C3760.952,2946.222 3763.725,2939.163 3768.925,2933.964C3774.495,2928.393 3782.199,2925.608 3792.037,2925.608L3792.957,2925.608C3793.855,2917.745 3796.009,2910.605 3799.421,2904.187C3804.051,2895.476 3810.423,2888.662 3818.539,2883.743C3826.657,2878.823 3835.953,2876.364 3846.426,2876.364C3858.349,2876.364 3868.144,2878.896 3875.812,2883.96C3883.48,2889.023 3889.165,2895.823 3892.868,2904.359C3896.573,2912.896 3898.426,2922.415 3898.426,2932.918C3898.426,2934.394 3898.36,2936.066 3898.229,2937.933C3898.101,2939.798 3897.891,2941.296 3897.602,2942.426L3897.596,2942.426C3897.284,2943.965 3896.794,2945.469 3896.071,2946.867L3819.975,2946.867C3821.116,2950.631 3822.88,2953.917 3825.267,2956.726C3828.551,2960.589 3832.732,2963.491 3837.81,2965.43C3842.889,2967.368 3848.525,2968.336 3854.717,2968.336L3919.462,2968.336L3919.462,2968.38L3971.188,2968.38C3973.822,2968.38 3976.107,2967.824 3978.045,2966.712C3979.984,2965.598 3981.489,2964.1 3982.558,2962.219C3983.629,2960.338 3984.165,2958.326 3984.165,2956.183C3984.165,2953.986 3983.666,2952.004 3982.666,2950.239C3981.669,2948.473 3980.245,2947.041 3978.394,2945.943C3976.542,2944.842 3974.343,2944.291 3971.795,2944.291L3950.181,2944.291C3943.092,2944.291 3936.79,2943.142 3931.277,2940.843C3925.765,2938.541 3921.425,2934.982 3918.256,2930.165C3915.088,2925.347 3913.505,2919.249 3913.505,2911.87C3913.505,2905.939 3914.973,2900.492 3917.91,2895.529C3920.846,2890.565 3924.868,2886.572 3929.975,2883.549C3935.084,2880.525 3940.821,2879.012 3947.187,2879.012L4079.167,2879.012L4079.167,2879.022C4079.56,2879.015 4079.954,2879.012 4080.35,2879.012C4091.435,2879.012 4101.304,2881.522 4109.957,2886.541C4118.609,2891.559 4125.437,2898.333 4130.441,2906.862C4135.446,2915.389 4137.949,2925.009 4137.949,2935.723C4137.949,2946.295 4135.446,2955.866 4130.441,2964.434C4125.437,2973.001 4118.609,2979.794 4109.957,2984.812C4101.304,2989.831 4091.435,2992.341 4080.35,2992.341C4069.268,2992.341 4059.4,2989.831 4050.748,2984.812C4042.095,2979.794 4035.266,2972.99 4030.26,2964.401C4025.257,2955.81 4022.755,2946.236 4022.755,2935.677C4022.755,2925.115 4025.257,2915.54 4030.26,2906.952C4031.622,2904.615 4033.119,2902.41 4034.751,2900.337L3979.105,2900.337L3979.105,2900.324L3949.574,2900.324C3946.247,2900.324 3943.504,2901.373 3941.348,2903.471C3939.193,2905.569 3938.116,2908.122 3938.116,2911.131C3938.116,2914.084 3939.179,2916.615 3941.304,2918.727C3943.431,2920.838 3946.318,2921.894 3949.964,2921.894L3971.059,2921.894C3978.987,2921.894 3985.758,2923.124 3991.371,2925.583C3996.984,2928.043 4001.295,2931.732 4004.304,2936.651C4007.315,2941.571 4008.821,2947.821 4008.821,2955.403C4008.821,2961.539 4007.287,2967.217 4004.219,2972.439C4001.152,2977.661 3996.999,2981.842 3991.761,2984.982C3986.525,2988.122 3980.565,2989.692 3973.88,2989.692L3917.757,2989.692L3917.757,2989.648L3854.717,2989.648C3842.363,2989.648 3831.512,2987.297 3822.164,2982.595C3812.818,2977.893 3805.534,2971.368 3800.309,2963.019C3797.263,2958.149 3795.105,2952.863 3793.836,2947.161C3791.696,2947.57 3789.718,2948.999 3788.272,2950.688C3786.415,2952.857 3785.439,2955.706 3785.439,2959.178L3785.439,2959.198C3785.439,2969.036 3782.654,2975.767 3777.084,2981.337C3771.514,2986.907 3763.809,2989.692 3753.971,2989.692L3702.936,2989.692C3698.191,2989.692 3693.945,2988.528 3690.197,2986.2C3686.451,2983.869 3683.449,2980.765 3681.19,2976.888C3678.934,2973.011 3677.806,2968.714 3677.806,2963.996C3677.806,2959.366 3678.964,2955.178 3681.278,2951.432C3683.593,2947.684 3686.776,2944.465 3690.827,2941.775L3739.006,2910.263C3740.394,2909.481 3741.275,2908.656 3741.651,2907.788C3742.028,2906.92 3742.217,2906.052 3742.217,2905.183C3742.217,2903.911 3741.739,2902.783 3740.783,2901.799C3739.829,2900.816 3738.585,2900.324 3737.053,2900.324L3654.205,2900.324ZM3572.169,2934.352C3572.172,2941.217 3573.56,2947.416 3576.333,2952.952C3579.111,2958.492 3583.026,2962.89 3588.076,2966.146C3593.126,2969.401 3599.065,2971.029 3605.892,2971.029C3612.721,2971.029 3618.66,2969.401 3623.708,2966.146C3628.758,2962.89 3632.672,2958.499 3635.451,2952.972C3638.229,2947.445 3639.618,2941.245 3639.618,2934.373C3639.618,2927.5 3638.229,2921.294 3635.451,2915.753C3632.672,2910.212 3628.758,2905.814 3623.708,2902.559C3618.66,2899.304 3612.721,2897.676 3605.892,2897.676C3599.065,2897.676 3593.126,2899.304 3588.076,2902.559C3583.026,2905.814 3579.111,2910.205 3576.333,2915.733C3573.665,2921.046 3572.279,2926.98 3572.175,2933.536C3572.171,2933.8 3572.169,2934.066 3572.169,2934.332L3572.169,2934.352ZM4080.35,2971.515C4087.024,2971.515 4092.827,2969.925 4097.76,2966.744C4102.694,2963.563 4106.519,2959.272 4109.234,2953.871C4111.949,2948.47 4113.307,2942.412 4113.307,2935.696C4113.307,2928.981 4111.949,2922.916 4109.234,2917.502C4106.519,2912.088 4102.694,2907.79 4097.76,2904.609C4092.827,2901.428 4087.024,2899.838 4080.35,2899.838C4073.679,2899.838 4067.876,2901.428 4062.941,2904.609C4058.006,2907.79 4054.181,2912.081 4051.467,2917.482C4048.754,2922.883 4047.398,2928.941 4047.398,2935.657C4047.398,2942.372 4048.754,2948.437 4051.467,2953.851C4054.181,2959.265 4058.006,2963.563 4062.941,2966.744C4067.876,2969.925 4073.679,2971.515 4080.35,2971.515ZM3818.78,2925.455L3873.469,2925.455C3873.295,2922.676 3872.874,2919.906 3872.207,2917.143C3871.543,2914.379 3870.523,2911.789 3869.149,2909.375C3867.774,2906.958 3866.06,2904.831 3864.005,2902.993C3861.952,2901.155 3859.464,2899.694 3856.541,2898.608C3853.618,2897.523 3850.261,2896.981 3846.47,2896.981C3842.188,2896.981 3838.369,2897.798 3835.012,2899.432C3831.655,2901.067 3828.834,2903.245 3826.548,2905.967C3824.263,2908.686 3822.483,2911.739 3821.208,2915.126C3819.935,2918.51 3819.126,2921.953 3818.78,2925.455Z" style="fill:white;"/>
            </g>
            <g transform="matrix(0.711847,0,0,0.711847,791.938782,-980.896575)">
                <g transform="matrix(4.166667,0,0,4.166667,1029.292229,2048.060954)">
                    <path d="M131.54,30.39L75.29,86.7C75.108,86.858 74.875,86.945 74.634,86.945C74.086,86.945 73.634,86.494 73.634,85.945C73.634,85.805 73.664,85.668 73.72,85.54L89.13,50.54C90.224,48.047 90.79,45.353 90.79,42.63C90.79,31.842 81.918,22.961 71.13,22.95L11.46,22.95C2.71,22.95 -3.76,13.13 2.46,3.95C4.151,1.455 6.986,-0.03 10,-0L118.44,0C133.69,0 142.12,19.27 131.54,30.39Z" style="fill:white;fill-rule:nonzero;"/>
                </g>
                <g transform="matrix(4.166667,0,0,4.166667,1029.292229,2048.060954)">
                    <path d="M4.73,113.76L61,57.45C61.181,57.296 61.411,57.211 61.649,57.211C62.197,57.211 62.649,57.662 62.649,58.211C62.649,58.345 62.622,58.477 62.57,58.6L47.17,93.6C46.072,96.096 45.505,98.793 45.505,101.52C45.505,112.309 54.381,121.187 65.17,121.19L134.28,121.19C143.04,121.19 149.5,131.01 143.28,140.19C141.577,142.646 138.758,144.098 135.77,144.06L17.82,144.06C2.57,144.14 -5.86,124.87 4.73,113.76Z" style="fill:white;fill-rule:nonzero;"/>
                </g>
            </g>
        </g>
    </g>
</svg>
