<svg xmlns="http://www.w3.org/2000/svg" viewBox="0 0 145.71 144.14"><g id="Capa_2" data-name="Capa 2"><g id="Capa_1-2" data-name="Capa 1"><path d="M131.54,30.39,75.29,86.7a1,1,0,0,1-1.57-1.16l15.41-35a19.68,19.68,0,0,0-18-27.59H11.46c-8.75,0-15.22-9.82-9-19A9,9,0,0,1,10,0H118.44C133.69,0,142.12,19.27,131.54,30.39Z" fill="lime"/><path d="M131.54,30.39,75.29,86.7a1,1,0,0,1-1.57-1.16l15.41-35a19.68,19.68,0,0,0-18-27.59H11.46c-8.75,0-15.22-9.82-9-19A9,9,0,0,1,10,0H118.44C133.69,0,142.12,19.27,131.54,30.39Z" fill="#fff"/><path d="M4.73,113.76,61,57.45a1,1,0,0,1,1.57,1.15l-15.4,35a19.67,19.67,0,0,0,18,27.59h69.11c8.76,0,15.22,9.82,9,19a9,9,0,0,1-7.51,3.87H17.82C2.57,144.14-5.86,124.87,4.73,113.76Z" fill="lime"/><path d="M4.73,113.76,61,57.45a1,1,0,0,1,1.57,1.15l-15.4,35a19.67,19.67,0,0,0,18,27.59h69.11c8.76,0,15.22,9.82,9,19a9,9,0,0,1-7.51,3.87H17.82C2.57,144.14-5.86,124.87,4.73,113.76Z" fill="#fff"/></g></g></svg>